<mxfile host="app.diagrams.net" modified="2024-05-17T10:38:27.168Z" agent="Mozilla/5.0 (X11; Linux x86_64; rv:126.0) Gecko/20100101 Firefox/126.0" version="24.4.4" etag="UdPS_KDDaf9N62oEudFr" type="github">
  <diagram name="Page-1" id="MwQMSbROljAOvAbf2_30">
    <mxGraphModel>
      <root>
        <mxCell id="0" />
        <mxCell id="1" parent="0" />
      </root>
    </mxGraphModel>
  </diagram>
</mxfile>
